<svg width="29" height="18" viewBox="0 0 29 18" fill="none" xmlns="http://www.w3.org/2000/svg">
<g clip-path="url(#clip0_1143_21547)">
<path d="M22.338 14.5051H24.0622C24.1411 14.5051 24.2169 14.4747 24.2727 14.4206C24.3286 14.3664 24.36 14.293 24.36 14.2165V12.5452C24.36 12.5073 24.3677 12.4697 24.3826 12.4347C24.3976 12.3996 24.4195 12.3678 24.4472 12.341C24.4748 12.3141 24.5077 12.2929 24.5438 12.2783C24.58 12.2638 24.6187 12.2564 24.6578 12.2564H26.382C26.461 12.2564 26.5368 12.226 26.5927 12.1718C26.6486 12.1177 26.68 12.0443 26.68 11.9677V10.8641C26.68 10.6371 26.773 10.4195 26.9386 10.259C27.1041 10.0986 27.3286 10.0084 27.5628 10.0084H28.702C28.7811 10.0084 28.8568 9.97799 28.9127 9.92383C28.9686 9.86966 29 9.7962 29 9.71959V7.48627C29 7.40967 28.9686 7.3362 28.9127 7.28204C28.8568 7.22787 28.7811 7.19744 28.702 7.19744H27.6C27.356 7.19733 27.122 7.10328 26.9494 6.93597C26.7769 6.76866 26.68 6.54179 26.68 6.30524V5.24648C26.68 5.16988 26.6486 5.09641 26.5927 5.04225C26.5368 4.98808 26.4611 4.95765 26.382 4.95765H24.658C24.6188 4.95767 24.5801 4.95021 24.5439 4.9357C24.5078 4.9212 24.4749 4.89992 24.4472 4.8731C24.4196 4.84627 24.3976 4.81443 24.3826 4.77938C24.3677 4.74432 24.36 4.70676 24.36 4.66882V2.9977C24.36 2.92112 24.3286 2.84767 24.2728 2.79351C24.2169 2.73935 24.1412 2.7089 24.0622 2.70887H22.338C22.2988 2.70887 22.2601 2.7014 22.2239 2.68688C22.1878 2.67237 22.1549 2.65109 22.1273 2.62427C22.0996 2.59745 22.0777 2.56561 22.0627 2.53057C22.0477 2.49553 22.04 2.45797 22.04 2.42004V0.748911C22.04 0.672334 22.0086 0.59889 21.9528 0.544729C21.8969 0.490567 21.8212 0.46012 21.7422 0.460083L19.438 0.460083C19.3988 0.460065 19.3601 0.467523 19.3239 0.482031C19.2878 0.49654 19.2549 0.517814 19.2272 0.544638C19.1996 0.571462 19.1776 0.603309 19.1626 0.63836C19.1477 0.67341 19.14 0.710977 19.14 0.748911V2.98224C19.14 3.02017 19.1477 3.05774 19.1626 3.09279C19.1776 3.12784 19.1996 3.15968 19.2272 3.18651C19.2549 3.21333 19.2878 3.23461 19.3239 3.24912C19.3601 3.26362 19.3988 3.27108 19.438 3.27106H21.1622C21.2412 3.2711 21.3169 3.30155 21.3728 3.35571C21.4286 3.40987 21.46 3.48331 21.46 3.55989V5.23102C21.46 5.26895 21.4677 5.30652 21.4826 5.34157C21.4976 5.37662 21.5196 5.40847 21.5472 5.43529C21.5749 5.46212 21.6078 5.48339 21.6439 5.4979C21.6801 5.51241 21.7188 5.51987 21.758 5.51985H23.4822C23.5612 5.51989 23.6369 5.55033 23.6928 5.60449C23.7486 5.65866 23.78 5.7321 23.78 5.80868V6.35415C23.78 6.5778 23.6883 6.7923 23.5252 6.95045C23.362 7.10859 23.1407 7.19744 22.91 7.19744L0.297976 7.19744C0.218948 7.19744 0.143156 7.22787 0.0872746 7.28204C0.0313931 7.3362 0 7.40967 0 7.48627V9.71959C0 9.7962 0.0313931 9.86966 0.0872746 9.92383C0.143156 9.97799 0.218948 10.0084 0.297976 10.0084L22.91 10.0084C23.1407 10.0084 23.362 10.0973 23.5252 10.2554C23.6883 10.4136 23.78 10.6281 23.78 10.8517V11.4053C23.78 11.4819 23.7486 11.5554 23.6928 11.6095C23.6369 11.6637 23.5612 11.6941 23.4822 11.6942H21.758C21.7188 11.6941 21.6801 11.7016 21.6439 11.7161C21.6078 11.7306 21.5749 11.7519 21.5472 11.7787C21.5196 11.8055 21.4976 11.8374 21.4826 11.8724C21.4677 11.9075 21.46 11.9451 21.46 11.983V13.6543C21.46 13.7308 21.4286 13.8043 21.3727 13.8584C21.3168 13.9125 21.241 13.943 21.162 13.943H19.438C19.3988 13.9429 19.3601 13.9504 19.3239 13.9649C19.2878 13.9794 19.2549 14.0007 19.2272 14.0275C19.1996 14.0543 19.1776 14.0862 19.1626 14.1212C19.1477 14.1563 19.14 14.1938 19.14 14.2318V16.4652C19.14 16.5418 19.1714 16.6152 19.2272 16.6694C19.2831 16.7235 19.3588 16.7539 19.4378 16.7539H21.7422C21.8211 16.7539 21.8969 16.7235 21.9527 16.6693C22.0086 16.6152 22.04 16.5418 22.04 16.4652V14.794C22.04 14.756 22.0477 14.7185 22.0627 14.6834C22.0777 14.6484 22.0996 14.6166 22.1273 14.5897C22.1549 14.5629 22.1878 14.5416 22.2239 14.5271C22.2601 14.5126 22.2988 14.5051 22.338 14.5051Z" fill="#101114"/>
</g>
<defs>
<clipPath id="clip0_1143_21547">
<rect width="18" height="29" fill="white" transform="matrix(0 1 -1 0 29 0)"/>
</clipPath>
</defs>
</svg>
