<svg width="33" height="32" viewBox="0 0 33 32" fill="none" xmlns="http://www.w3.org/2000/svg">
<path fill-rule="evenodd" clip-rule="evenodd" d="M16.5012 26.1335C18.5054 26.1335 20.4645 25.5392 22.131 24.4258C23.7974 23.3123 25.0962 21.7297 25.8632 19.8781C26.6301 18.0264 26.8308 15.989 26.4398 14.0233C26.0488 12.0576 25.0837 10.252 23.6665 8.83485C22.2493 7.41768 20.4438 6.45257 18.4781 6.06158C16.5124 5.67058 14.4749 5.87125 12.6233 6.63822C10.7717 7.40519 9.18908 8.704 8.07561 10.3704C6.96215 12.0368 6.36784 13.996 6.36784 16.0002C6.36784 18.6877 7.43545 21.2652 9.33582 23.1656C11.2362 25.0659 13.8136 26.1335 16.5012 26.1335ZM16.5012 28.8002C19.0328 28.8002 21.5075 28.0495 23.6125 26.643C25.7174 25.2365 27.358 23.2374 28.3268 20.8986C29.2956 18.5597 29.5491 15.986 29.0552 13.503C28.5613 11.0201 27.3423 8.73935 25.5521 6.94923C23.762 5.15912 21.4813 3.94004 18.9983 3.44615C16.5154 2.95226 13.9417 3.20574 11.6028 4.17454C9.26393 5.14334 7.26484 6.78395 5.85836 8.8889C4.45188 10.9939 3.70117 13.4686 3.70117 16.0002C3.70117 19.395 5.04974 22.6507 7.45021 25.0512C9.85067 27.4516 13.1064 28.8002 16.5012 28.8002ZM16.5012 17.6002L20.7012 21.8669L22.3678 20.2002L18.1012 16.0002L22.3678 11.8002L20.7012 10.2002L16.5012 14.4002L12.3012 10.2002L10.7012 11.8002L14.9012 16.0002L10.7012 20.2669L12.3012 21.8669L16.5012 17.6002Z" fill="#101114"/>
</svg>
