<svg width="20" height="20" viewBox="0 0 20 20" fill="none" xmlns="http://www.w3.org/2000/svg">
<g clip-path="url(#clip0_1125_21513)">
<path d="M11.1111 1.07611V7.77778C11.1111 8.07246 11.2282 8.35508 11.4365 8.56345C11.6449 8.77183 11.9275 8.88889 12.2222 8.88889L18.7828 8.88889C19.1056 8.88889 19.4152 9.01713 19.6435 9.24541C19.8718 9.47368 20 9.78328 20 10.1061L20 18.7606C20 19.0893 19.8694 19.4045 19.637 19.637C19.4045 19.8694 19.0893 20 18.7606 20L10.0172 20C9.71797 20 9.43097 19.8811 9.21937 19.6695C9.00777 19.4579 8.88889 19.1709 8.88889 18.8717L8.88889 12.2222C8.88889 11.9275 8.77183 11.6449 8.56345 11.4365C8.35508 11.2282 8.07246 11.1111 7.77778 11.1111H1.11111C0.816425 11.1111 0.53381 10.994 0.325436 10.7857C0.117062 10.5773 0 10.2947 0 10V1.07611C0 0.934793 0.0278339 0.794861 0.0819149 0.664301C0.135994 0.533741 0.21526 0.415112 0.315186 0.315186C0.415112 0.21526 0.533741 0.135994 0.664301 0.0819149C0.794861 0.0278339 0.934793 0 1.07611 0H10.035C10.1763 0 10.3162 0.0278339 10.4468 0.0819149C10.5774 0.135994 10.696 0.21526 10.7959 0.315186C10.8959 0.415112 10.9751 0.533741 11.0292 0.664301C11.0833 0.794861 11.1111 0.934793 11.1111 1.07611Z" fill="#101114"/>
</g>
<defs>
<clipPath id="clip0_1125_21513">
<rect width="20" height="20" fill="white" transform="matrix(0 -1 -1 0 20 20)"/>
</clipPath>
</defs>
</svg>
