<svg width="100%" height="100%" fill="none" viewBox="0 0 1863 299"  xmlns="http://www.w3.org/2000/svg">

  <path  d="M114.592 298.322H92.1192C59.7895 298.322 1.43823 210.588 1.43823 167.12V143.193C1.43823 97.3325 61.7608 11.1943 92.1192 11.1943H114.592C140.614 11.1943 192.657 73.4052 197.782 115.278H161.51C155.596 91.3507 138.642 63.0367 117.352 63.0367H92.9077C65.3092 63.0367 38.8935 123.652 38.8935 142.396V168.317C38.8935 186.262 65.3092 246.479 92.9077 246.479H117.352C139.037 246.479 156.384 218.963 162.298 193.839H198.571C195.811 236.111 141.402 298.322 114.592 298.322ZM352.968 298.322H319.455C291.068 298.322 239.42 232.92 239.42 205.404V183.869C239.42 156.353 291.068 90.9519 319.455 90.9519H352.968C381.355 90.9519 433.003 156.353 433.003 183.869V205.404C433.003 232.92 381.355 298.322 352.968 298.322ZM322.609 248.473H349.419C367.95 248.473 395.548 218.165 395.548 203.011V185.863C395.548 170.709 367.95 140.8 349.419 140.8H322.609C303.685 140.8 276.875 170.311 276.875 185.863V203.011C276.875 218.564 303.685 248.473 322.609 248.473ZM569.658 298.322H552.311C531.809 298.322 478.189 230.926 478.189 205.404V183.869C478.189 158.347 531.809 90.9519 552.311 90.9519H569.658C583.063 90.9519 595.68 106.903 606.325 120.462H624.067V15.1822H659.551V294.334H624.067V268.811H606.325C595.68 282.37 583.063 298.322 569.658 298.322ZM563.35 248.473H575.967C596.468 248.473 623.278 220.159 623.278 205.005V183.869C623.278 168.716 596.468 141.199 575.967 141.199H563.35C542.454 141.199 515.644 168.317 515.644 183.869V205.005C515.644 220.558 542.454 248.473 563.35 248.473ZM825.778 298.322H798.968C770.187 298.322 718.538 232.92 718.538 205.404V183.869C718.538 156.353 770.187 90.9519 798.968 90.9519H825.778C851.799 90.9519 901.871 154.359 901.871 187.857V207.797H755.993C760.33 227.736 780.832 248.473 797.785 248.473H825.384C837.212 248.473 850.222 240.896 857.319 230.528H898.717C890.043 258.842 846.674 298.322 825.778 298.322ZM755.993 175.894H864.81C856.531 154.758 839.972 140.8 825.384 140.8H797.785C780.832 140.8 763.09 158.347 755.993 175.894ZM1066.12 298.322H1048.78C1035.37 298.322 1022.76 282.37 1012.11 268.811H994.368V294.334H958.884V15.1822H994.368V120.462H1012.11C1022.76 106.903 1035.37 90.9519 1048.78 90.9519H1066.12C1086.63 90.9519 1140.25 158.347 1140.25 183.869V205.404C1140.25 230.926 1086.63 298.322 1066.12 298.322ZM1042.47 248.074H1055.08C1075.98 248.074 1102.79 220.957 1102.79 205.404V184.268C1102.79 168.716 1075.98 140.8 1055.08 140.8H1042.47C1021.97 140.8 995.157 169.114 995.157 184.268V205.404C995.157 220.558 1021.97 248.074 1042.47 248.074ZM1256 294.334H1218.94V94.9398H1364.03V144.788H1287.55C1276.9 144.788 1256 159.942 1256 171.108V294.334ZM1545.24 55.061H1492.02V1.22461H1545.24V55.061ZM1611.08 294.334H1425.78V248.473H1500.69V140.8H1425.78V94.9398H1536.17V248.473H1611.08V294.334ZM1861.29 294.334H1818.31L1764.3 185.863H1745.77L1691.75 294.334H1648.39L1714.62 161.537V143.592L1648.39 15.1822H1692.15L1744.59 116.873H1762.72L1812.4 15.1822H1855.37L1794.26 141.199V159.543L1861.29 294.334Z" stroke="#101114" stroke-dasharray="1 4" fill="#ffffff"/>
</svg>
