<svg width="110" height="20" viewBox="0 0 110 20" fill="none" xmlns="http://www.w3.org/2000/svg">
<path d="M6.82189 18.5667H5.50697C3.61534 18.5667 0.201172 13.4333 0.201172 10.89V9.49002C0.201172 6.80668 3.73068 1.76668 5.50697 1.76668H6.82189C8.34442 1.76668 11.3895 5.40668 11.6894 7.85668H9.56706C9.22103 6.45668 8.22907 4.80002 6.98337 4.80002H5.55311C3.9383 4.80002 2.3927 8.34668 2.3927 9.44335V10.96C2.3927 12.01 3.9383 15.5333 5.55311 15.5333H6.98337C8.25214 15.5333 9.26716 13.9234 9.61319 12.4534H11.7355C11.574 14.9267 8.39055 18.5667 6.82189 18.5667ZM20.7694 18.5667H18.8086C17.1476 18.5667 14.1256 14.74 14.1256 13.13V11.87C14.1256 10.26 17.1476 6.43335 18.8086 6.43335H20.7694C22.4303 6.43335 25.4523 10.26 25.4523 11.87V13.13C25.4523 14.74 22.4303 18.5667 20.7694 18.5667ZM18.9931 15.65H20.5618C21.646 15.65 23.2608 13.8767 23.2608 12.99V11.9867C23.2608 11.1 21.646 9.35002 20.5618 9.35002H18.9931C17.8858 9.35002 16.3172 11.0767 16.3172 11.9867V12.99C16.3172 13.9 17.8858 15.65 18.9931 15.65ZM33.4481 18.5667H32.4331C31.2335 18.5667 28.0962 14.6234 28.0962 13.13V11.87C28.0962 10.3767 31.2335 6.43335 32.4331 6.43335H33.4481C34.2324 6.43335 34.9706 7.36668 35.5935 8.16002H36.6316V2.00002H38.7077V18.3334H36.6316V16.84H35.5935C34.9706 17.6334 34.2324 18.5667 33.4481 18.5667ZM33.079 15.65H33.8172C35.0168 15.65 36.5854 13.9934 36.5854 13.1067V11.87C36.5854 10.9834 35.0168 9.37335 33.8172 9.37335H33.079C31.8564 9.37335 30.2877 10.96 30.2877 11.87V13.1067C30.2877 14.0167 31.8564 15.65 33.079 15.65ZM48.4338 18.5667H46.8652C45.1811 18.5667 42.1591 14.74 42.1591 13.13V11.87C42.1591 10.26 45.1811 6.43335 46.8652 6.43335H48.4338C49.9564 6.43335 52.8861 10.1433 52.8861 12.1034V13.27H44.3507C44.6044 14.4367 45.804 15.65 46.7959 15.65H48.4108C49.1028 15.65 49.8641 15.2067 50.2793 14.6H52.7015C52.194 16.2567 49.6565 18.5667 48.4338 18.5667ZM44.3507 11.4033H50.7176C50.2332 10.1667 49.2643 9.35002 48.4108 9.35002H46.7959C45.804 9.35002 44.7659 10.3767 44.3507 11.4033ZM62.4966 18.5667H61.4816C60.6973 18.5667 59.9591 17.6334 59.3362 16.84H58.2981V18.3334H56.222V2.00002H58.2981V8.16002H59.3362C59.9591 7.36668 60.6973 6.43335 61.4816 6.43335H62.4966C63.6962 6.43335 66.8335 10.3767 66.8335 11.87V13.13C66.8335 14.6234 63.6962 18.5667 62.4966 18.5667ZM61.1125 15.6267H61.8507C63.0734 15.6267 64.642 14.04 64.642 13.13V11.8934C64.642 10.9833 63.0734 9.35002 61.8507 9.35002H61.1125C59.913 9.35002 58.3443 11.0067 58.3443 11.8934V13.13C58.3443 14.0167 59.913 15.6267 61.1125 15.6267ZM73.6067 18.3334H71.4382V6.66668H79.9275V9.58335H75.4522C74.8293 9.58335 73.6067 10.47 73.6067 11.1233V18.3334ZM90.5302 4.33335H87.4159V1.18335H90.5302V4.33335ZM94.3826 18.3334H83.5404V15.65H87.9234V9.35002H83.5404V6.66668H89.9996V15.65H94.3826V18.3334ZM109.022 18.3334H106.508L103.347 11.9867H102.263L99.1027 18.3334H96.5651L100.441 10.5633V9.51335L96.5651 2.00002H99.1257L102.194 7.95002H103.255L106.162 2.00002H108.676L105.101 9.37335V10.4467L109.022 18.3334Z" fill="#101114"/>
</svg>
