<svg width="35" height="32" viewBox="0 0 35 32" fill="none" xmlns="http://www.w3.org/2000/svg">
<g clip-path="url(#clip0_1181_22938)">
<path d="M21.6 15.2L8 12.8V30.5337C8 31.3435 8.65653 32 9.4664 32H32.9336C33.7435 32 34.4 31.3435 34.4 30.5337V24L21.6 15.2Z" fill="#185C37"/>
<path d="M21.6 0H9.4664C8.65653 0 8 0.656526 8 1.4664V8L21.6 16L28.8 18.4L34.4 16V8L21.6 0Z" fill="#21A366"/>
<path d="M8 8H21.6V16H8V8Z" fill="#107C41"/>
<path opacity="0.1" d="M17.7336 6.3999H8V26.3999H17.7336C18.5424 26.3973 19.1974 25.7423 19.2 24.9335V7.8663C19.1974 7.05752 18.5424 6.40253 17.7336 6.3999Z" fill="#E10098"/>
<path opacity="0.2" d="M16.9336 7.19995H8V27.2H16.9336C17.7424 27.1973 18.3974 26.5423 18.4 25.7336V8.66635C18.3974 7.85757 17.7424 7.20258 16.9336 7.19995Z" fill="#E10098"/>
<path opacity="0.2" d="M16.9336 7.19995H8V25.6H16.9336C17.7424 25.5973 18.3974 24.9423 18.4 24.1336V8.66635C18.3974 7.85757 17.7424 7.20258 16.9336 7.19995Z" fill="#E10098"/>
<path opacity="0.2" d="M16.1336 7.19995H8V25.6H16.1336C16.9424 25.5973 17.5974 24.9423 17.6 24.1336V8.66635C17.5974 7.85757 16.9424 7.20258 16.1336 7.19995Z" fill="#E10098"/>
<path d="M1.4664 7.19995H16.1336C16.9435 7.19995 17.6 7.85648 17.6 8.66635V23.3335C17.6 24.1434 16.9435 24.7999 16.1336 24.7999H1.4664C0.656526 24.8 0 24.1434 0 23.3336V8.66635C0 7.85648 0.656526 7.19995 1.4664 7.19995Z" fill="url(#paint0_linear_1181_22938)"/>
<path d="M4.5415 20.7665L7.6263 15.9865L4.79991 11.2329H7.0735L8.6159 14.2729C8.75831 14.5617 8.8559 14.7761 8.90871 14.9177H8.9287C9.03004 14.6873 9.1367 14.4636 9.2487 14.2465L10.8975 11.2345H12.9847L10.0863 15.9601L13.0583 20.7665H10.8375L9.05591 17.4297C8.97199 17.2877 8.90078 17.1386 8.84312 16.9841H8.81672C8.76453 17.1355 8.69528 17.2804 8.61031 17.4161L6.77592 20.7665H4.5415Z" fill="white"/>
<path d="M32.9337 0H21.6001V8H34.4001V1.4664C34.4001 0.656526 33.7436 0 32.9337 0Z" fill="#33C481"/>
<path d="M21.6001 16H34.4001V24H21.6001V16Z" fill="#107C41"/>
</g>
<defs>
<linearGradient id="paint0_linear_1181_22938" x1="3.05748" y1="6.05414" x2="14.5425" y2="25.9458" gradientUnits="userSpaceOnUse">
<stop stop-color="#18884F"/>
<stop offset="0.5" stop-color="#117E43"/>
<stop offset="1" stop-color="#0B6631"/>
</linearGradient>
<clipPath id="clip0_1181_22938">
<rect width="34.4" height="32" fill="white"/>
</clipPath>
</defs>
</svg>
