<svg width="33" height="32" viewBox="0 0 33 32" fill="none" xmlns="http://www.w3.org/2000/svg">
<path fill-rule="evenodd" clip-rule="evenodd" d="M16.0305 2.20898L27.9739 9.10448V22.8955L16.0305 29.791L4.08716 22.8955V9.10448L16.0305 2.20898ZM5.42722 9.87818V20.008L14.2 4.81325L5.42722 9.87818ZM16.0305 4.32275L5.91772 21.8386H26.1433L16.0305 4.32275ZM24.8033 23.1787H7.25778L16.0305 28.2436L24.8033 23.1787ZM26.6338 20.008L17.8611 4.81325L26.6338 9.87818V20.008Z" fill="#E10098"/>
<path d="M16.0304 5.8052C17.5892 5.8052 18.8528 4.54157 18.8528 2.9828C18.8528 1.42403 17.5892 0.1604 16.0304 0.1604C14.4716 0.1604 13.208 1.42403 13.208 2.9828C13.208 4.54157 14.4716 5.8052 16.0304 5.8052Z" fill="#E10098"/>
<path d="M27.3038 12.3137C28.8626 12.3137 30.1262 11.0501 30.1262 9.49135C30.1262 7.93258 28.8626 6.66895 27.3038 6.66895C25.7451 6.66895 24.4814 7.93258 24.4814 9.49135C24.4814 11.0501 25.7451 12.3137 27.3038 12.3137Z" fill="#E10098"/>
<path d="M27.3038 25.3311C28.8626 25.3311 30.1262 24.0674 30.1262 22.5087C30.1262 20.9499 28.8626 19.6863 27.3038 19.6863C25.7451 19.6863 24.4814 20.9499 24.4814 22.5087C24.4814 24.0674 25.7451 25.3311 27.3038 25.3311Z" fill="#E10098"/>
<path d="M16.0304 31.8396C17.5892 31.8396 18.8528 30.576 18.8528 29.0172C18.8528 27.4585 17.5892 26.1948 16.0304 26.1948C14.4716 26.1948 13.208 27.4585 13.208 29.0172C13.208 30.576 14.4716 31.8396 16.0304 31.8396Z" fill="#E10098"/>
<path d="M4.75551 25.3311C6.31427 25.3311 7.57791 24.0674 7.57791 22.5087C7.57791 20.9499 6.31427 19.6863 4.75551 19.6863C3.19674 19.6863 1.93311 20.9499 1.93311 22.5087C1.93311 24.0674 3.19674 25.3311 4.75551 25.3311Z" fill="#E10098"/>
<path d="M4.75551 12.3137C6.31427 12.3137 7.57791 11.0501 7.57791 9.49135C7.57791 7.93258 6.31427 6.66895 4.75551 6.66895C3.19674 6.66895 1.93311 7.93258 1.93311 9.49135C1.93311 11.0501 3.19674 12.3137 4.75551 12.3137Z" fill="#E10098"/>
</svg>
