<svg width="32" height="32" viewBox="0 0 32 32" fill="none" xmlns="http://www.w3.org/2000/svg">
<g clip-path="url(#clip0_1181_22873)">
<path d="M23.8567 15.1219C24.0807 15.0931 24.3076 15.0931 24.5316 15.1219C24.6563 14.8489 24.6738 14.3787 24.5653 13.8656C24.4031 13.104 24.1835 12.6412 23.7294 12.7147C23.2753 12.7881 23.2603 13.3391 23.4213 14.1007C23.4898 14.4679 23.6383 14.8163 23.8567 15.1219Z" fill="#101114"/>
<path d="M19.9604 15.7244C20.2848 15.864 20.4831 15.9571 20.5617 15.8763C20.6116 15.8248 20.5967 15.7293 20.5193 15.6044C20.3105 15.3091 20.0195 15.0791 19.6809 14.942C19.3196 14.7962 18.9262 14.7437 18.5383 14.7895C18.1504 14.8354 17.781 14.9781 17.4653 15.204C17.2482 15.3608 17.0424 15.5714 17.071 15.7073C17.081 15.7501 17.1135 15.782 17.1896 15.793C17.3692 15.8126 17.9942 15.5028 18.7141 15.4587C19.1453 15.4467 19.5731 15.5379 19.9604 15.7244Z" fill="#101114"/>
<path d="M19.3104 16.0894C19.0155 16.1211 18.7362 16.2354 18.5057 16.4188C18.3987 16.4946 18.3251 16.6075 18.2999 16.7347C18.2994 16.7481 18.3016 16.7614 18.3066 16.7739C18.3115 16.7864 18.319 16.7977 18.3286 16.8073C18.3382 16.8168 18.3497 16.8243 18.3623 16.8293C18.375 16.8343 18.3885 16.8367 18.4022 16.8363C18.5081 16.8209 18.6116 16.7925 18.7103 16.7518C19.1445 16.592 19.6131 16.5444 20.0714 16.6135C20.2835 16.6367 20.3846 16.6502 20.4307 16.5792C20.4421 16.5582 20.4469 16.5343 20.4447 16.5106C20.4425 16.4869 20.4333 16.4644 20.4182 16.4457C20.3197 16.2853 19.893 16.0221 19.3104 16.0894Z" fill="#101114"/>
<path d="M22.5417 17.4314C22.8286 17.5698 23.1443 17.5159 23.2478 17.309C23.3514 17.1021 23.2004 16.8192 22.9147 16.687C22.629 16.5547 22.3109 16.6025 22.2086 16.8094C22.1063 17.0164 22.2548 17.2931 22.5417 17.4314Z" fill="#101114"/>
<path d="M24.3869 15.8494C24.1536 15.8494 23.9602 16.0943 23.954 16.4102C23.9478 16.7261 24.1337 16.982 24.367 16.9857C24.6002 16.9893 24.7936 16.7408 24.7986 16.4249C24.8036 16.109 24.619 15.853 24.3869 15.8494Z" fill="#101114"/>
<path d="M8.48288 21.4769C8.41212 21.4961 8.33919 21.5063 8.26581 21.5076C8.18802 21.5085 8.11121 21.4906 8.04221 21.4553C7.9732 21.4201 7.91416 21.3686 7.87033 21.3055C7.76429 21.1463 7.77052 20.9076 7.8878 20.6345C7.90401 20.5978 7.92148 20.5562 7.94269 20.5121C8.12982 20.1007 8.44171 19.4101 8.09115 18.755C7.97743 18.5234 7.80707 18.323 7.59526 18.1717C7.38345 18.0205 7.13679 17.923 6.87727 17.8881C6.63165 17.8583 6.38233 17.8861 6.14983 17.9693C5.91732 18.0526 5.70827 18.1888 5.53988 18.3668C5.02464 18.9252 4.94355 19.6843 5.04086 19.9525C5.07704 20.0505 5.13442 20.0749 5.17684 20.0835C5.26417 20.0958 5.39392 20.0321 5.47501 19.8178C5.48125 19.8031 5.48873 19.7786 5.49871 19.748C5.5487 19.5766 5.62037 19.4121 5.71205 19.2582C5.77712 19.1559 5.86261 19.0676 5.96338 18.9986C6.06415 18.9296 6.17811 18.8813 6.2984 18.8566C6.42015 18.8304 6.54601 18.8284 6.66857 18.8507C6.79112 18.873 6.90789 18.9191 7.01201 18.9864C7.18821 19.0998 7.31909 19.2695 7.38251 19.4667C7.44593 19.664 7.43801 19.8767 7.36008 20.0688C7.23634 20.3745 7.17488 20.7011 7.17918 21.03C7.23657 21.7108 7.66448 21.9851 8.05247 22.0096C8.44047 22.0341 8.68624 21.8173 8.75236 21.6667C8.76747 21.641 8.77414 21.6113 8.77146 21.5818C8.76878 21.5522 8.75689 21.5241 8.73739 21.5014C8.67376 21.4341 8.5777 21.4561 8.48288 21.4769Z" fill="#101114"/>
<path d="M30.2662 20.2593C30.2524 20.2091 30.1601 19.8772 30.0329 19.4781C29.96 19.2461 29.8738 19.0184 29.7746 18.796C30.2836 18.0467 30.2936 17.3769 30.225 16.9973C30.1487 16.5083 29.9122 16.057 29.5513 15.7116C29.1496 15.2965 28.3262 14.8729 27.171 14.5533C27.0387 14.5178 26.6021 14.4002 26.5634 14.388C26.5634 14.3635 26.5322 12.9848 26.506 12.3933C26.494 11.7996 26.4038 11.2098 26.2378 10.6387C25.9883 9.74851 25.5479 8.96853 25.0002 8.47018C26.511 6.93348 27.4542 5.24128 27.4517 3.78785C27.4454 0.994858 23.9522 0.149982 19.6457 1.90096L18.7324 2.28054C18.7324 2.28054 17.0832 0.688743 17.0582 0.670377C12.1478 -3.53319 -3.20596 13.2162 1.7032 17.2838L2.7761 18.1765C2.48587 18.9402 2.3837 19.7604 2.47794 20.5703C2.59271 21.6894 3.18031 22.7621 4.1347 23.5922C5.04043 24.3796 6.23061 24.8767 7.38585 24.8767C9.29587 29.1966 13.6598 31.8475 18.7774 31.9969C24.2666 32.1561 28.8751 29.6288 30.8064 25.0873C30.9311 24.7677 31.4676 23.3327 31.4676 22.0641C31.4676 20.7956 30.734 20.2593 30.2662 20.2593ZM7.81002 23.6596C7.64186 23.687 7.47141 23.6985 7.30101 23.6939C5.643 23.651 3.85275 22.1853 3.67435 20.4478C3.47723 18.5279 4.47778 17.05 6.24807 16.6998C6.49441 16.652 6.74584 16.6343 6.99661 16.6471C7.98842 16.701 9.45057 17.4479 9.78367 19.5687C10.0706 21.447 9.60526 23.3584 7.80753 23.6596H7.81002ZM5.95614 15.55C4.88008 15.7455 3.92361 16.344 3.28885 17.2189C2.9333 16.9287 2.27209 16.3618 2.15606 16.1475C1.20792 14.3806 3.19029 10.9448 4.57509 9.00404C7.9984 4.21029 13.3604 0.582216 15.8431 1.23975C16.246 1.3524 17.5822 2.87318 17.5822 2.87318C15.8997 3.81922 14.3002 4.90087 12.8003 6.10697C9.70008 8.44814 7.35965 11.8558 5.95614 15.55ZM12.2788 8.98567C13.4952 7.60571 14.9935 6.40574 16.3359 5.73229C16.3459 5.72712 16.3574 5.72528 16.3686 5.72705C16.3797 5.72882 16.39 5.7341 16.3979 5.7421C16.4058 5.7501 16.4108 5.76039 16.4122 5.77143C16.4136 5.78246 16.4113 5.79365 16.4057 5.80331C16.243 6.08755 16.1172 6.39074 16.0315 6.70573C16.029 6.71633 16.0298 6.72743 16.0339 6.73755C16.0379 6.74768 16.045 6.75636 16.0542 6.76245C16.0634 6.76855 16.0742 6.77177 16.0853 6.7717C16.0964 6.77163 16.1072 6.76827 16.1163 6.76206C16.9509 6.2037 18.4031 5.60494 19.6781 5.5278C19.6899 5.52735 19.7015 5.53056 19.7114 5.53697C19.7212 5.54338 19.7287 5.55267 19.7328 5.56352C19.737 5.57436 19.7376 5.58621 19.7344 5.59739C19.7313 5.60856 19.7247 5.61849 19.7155 5.62576C19.5049 5.78492 19.3166 5.97059 19.1554 6.17799C19.1495 6.1859 19.1459 6.19523 19.145 6.205C19.1441 6.21476 19.1459 6.22458 19.1502 6.2334C19.1546 6.24221 19.1613 6.2497 19.1697 6.25504C19.1781 6.26038 19.1878 6.26337 19.1978 6.2637C20.2357 6.29821 21.2526 6.55966 22.1745 7.02899C22.2306 7.0596 22.1907 7.16491 22.1283 7.15144C20.3523 6.75859 18.5089 6.76361 16.7351 7.16613C14.845 7.61795 13.4041 8.3159 12.3499 9.06037C12.3394 9.06508 12.3277 9.06644 12.3164 9.06425C12.3051 9.06206 12.2948 9.05644 12.2869 9.04817C12.2791 9.03991 12.274 9.02943 12.2726 9.01821C12.2711 9.00699 12.2733 8.99561 12.2788 8.98567ZM30.3223 22.4902C30.084 23.9081 29.4702 25.0616 28.4385 26.1158C27.7943 26.8003 27.0277 27.3631 26.1766 27.7762C25.7023 28.0207 25.2077 28.2255 24.6983 28.3884C20.8096 29.6349 16.8274 28.266 15.5449 25.3273C15.4407 25.1024 15.3543 24.8698 15.2867 24.6318C14.7402 22.6923 15.2043 20.3658 16.659 18.9001C16.7611 18.8129 16.8254 18.6907 16.8386 18.5585C16.8255 18.4392 16.7769 18.3264 16.6989 18.234C16.1912 17.5116 14.4333 16.2749 14.7864 13.8958C15.0359 12.1815 16.5654 10.9779 17.9876 11.0489L18.3482 11.0697C18.9645 11.1052 19.5034 11.1824 20.0099 11.2032C20.8595 11.2399 21.6243 11.1187 22.5288 10.3791C22.8332 10.1342 23.0777 9.91259 23.4919 9.84402C23.6139 9.81267 23.7403 9.80068 23.8662 9.80851C24.0884 9.81581 24.3042 9.88318 24.4899 10.0032C25.216 10.4771 25.3183 11.6244 25.3558 12.4631C25.377 12.9419 25.4368 14.1015 25.4568 14.4345C25.503 15.1949 25.7063 15.3027 26.1193 15.4349C26.3513 15.5108 26.5659 15.5659 26.8828 15.6541C27.8434 15.9186 28.4123 16.1867 28.7716 16.5308C28.9568 16.7094 29.0777 16.9424 29.1159 17.1944C29.2282 18.005 28.4747 19.0054 26.4773 19.9152C24.2941 20.9107 21.6455 21.1617 19.8166 20.9621L19.1753 20.8911C17.7107 20.6976 16.8761 22.5539 17.7543 23.8298C18.3207 24.6489 19.8627 25.1828 21.406 25.1828C24.9428 25.1828 27.6625 23.7012 28.6743 22.4204C28.7042 22.3825 28.7067 22.3776 28.7554 22.3078C28.804 22.238 28.7641 22.1927 28.7017 22.2343C27.8758 22.7902 24.2043 24.993 20.2782 24.3306C19.9673 24.2762 19.662 24.1942 19.3662 24.0857C19.0194 23.9535 18.2958 23.6265 18.2072 22.8967C21.376 23.8592 23.3709 22.9494 23.3709 22.9494C23.3893 22.9412 23.4046 22.9276 23.4149 22.9105C23.4252 22.8934 23.4298 22.8737 23.4283 22.8539C23.427 22.8421 23.4234 22.8307 23.4177 22.8203C23.4119 22.8099 23.4041 22.8008 23.3947 22.7934C23.3853 22.786 23.3745 22.7805 23.3629 22.7772C23.3513 22.7739 23.3392 22.7729 23.3272 22.7743C23.3272 22.7743 20.7298 23.1514 18.2771 22.2698C18.5441 21.4127 19.2552 21.7249 20.3293 21.8107C21.9986 21.907 23.6726 21.729 25.2821 21.2841C26.3937 20.9719 27.8534 20.3548 28.9862 19.4768C29.2311 20.0307 29.405 20.6123 29.5039 21.2082C29.6911 21.1809 29.8823 21.2149 30.0478 21.305C30.2687 21.4384 30.4396 21.7311 30.3223 22.4902Z" fill="#101114"/>
</g>
<defs>
<clipPath id="clip0_1181_22873">
<rect width="30.72" height="32" fill="white" transform="translate(0.748047)"/>
</clipPath>
</defs>
</svg>
