<svg width="15" height="32" viewBox="0 0 15 32" fill="none" xmlns="http://www.w3.org/2000/svg">
<g clip-path="url(#clip0_1181_22936)">
<path d="M10.2957 3.56662C8.94671 1.97316 7.78509 0.354794 7.54777 0.0186734C7.52279 -0.00622446 7.48531 -0.00622446 7.46033 0.0186734C7.22301 0.354794 6.06138 1.97316 4.71241 3.56662C-6.86628 18.2688 6.53604 28.1906 6.53604 28.1906L6.64845 28.2653C6.74837 29.7966 6.99818 32 6.99818 32H7.4978H7.99742C7.99742 32 8.24724 29.809 8.34717 28.2653L8.45956 28.1782C8.47206 28.1782 21.8744 18.2688 10.2957 3.56662ZM7.4978 27.9665C7.4978 27.9665 6.89826 27.4561 6.73589 27.1947V27.1699L7.46033 11.1605C7.46033 11.1107 7.53528 11.1107 7.53528 11.1605L8.25972 27.1699V27.1947C8.09734 27.4561 7.4978 27.9665 7.4978 27.9665Z" fill="#00684A"/>
</g>
<defs>
<clipPath id="clip0_1181_22936">
<rect width="14.8837" height="32" fill="white"/>
</clipPath>
</defs>
</svg>
