<svg width="32" height="32" viewBox="0 0 32 32" fill="none" xmlns="http://www.w3.org/2000/svg">
<g clip-path="url(#clip0_1181_22803)">
<path fill-rule="evenodd" clip-rule="evenodd" d="M29.4758 24.9262C27.7353 24.8777 26.3851 25.0561 25.2535 25.5321C24.9276 25.663 24.4047 25.663 24.3618 26.0731C24.5359 26.2452 24.5569 26.5269 24.7096 26.7654C24.9706 27.1983 25.4281 27.7814 25.8413 28.0839L27.2339 29.0791C28.0826 29.5978 29.0402 29.9008 29.867 30.42C30.346 30.723 30.8245 31.1122 31.3035 31.437C31.5474 31.6101 31.6952 31.8917 32.0001 31.9994V31.9339C31.8479 31.74 31.804 31.4588 31.6523 31.2417L30.9986 30.6149C30.3679 29.7714 29.584 29.0355 28.7353 28.4305C28.0387 27.9545 26.5159 27.3059 26.233 26.506L26.19 26.4575C26.6681 26.4091 27.2339 26.2409 27.6914 26.1109C28.4319 25.917 29.106 25.9597 29.867 25.7653L30.9123 25.4623V25.2684C30.5206 24.8792 30.2377 24.36 29.8245 23.9925C28.7148 23.0409 27.4953 22.1107 26.233 21.3322C25.5583 20.8997 24.6876 20.6181 23.9696 20.2511C23.7077 20.1212 23.2731 20.0563 23.1209 19.8401C22.7282 19.365 22.5111 18.7372 22.2282 18.1744L20.4439 14.4112C20.0522 13.5677 19.8122 12.7242 19.3342 11.9457C17.0923 8.26878 14.6544 6.04129 10.9111 3.85647C10.1062 3.40225 9.14873 3.20689 8.13072 2.96935L6.49858 2.88209C6.14981 2.73085 5.80202 2.31977 5.49716 2.12489C4.25672 1.34637 1.05733 -0.340608 0.14273 1.88251C-0.445053 3.28832 1.01343 4.67232 1.50853 5.38638C1.87925 5.88374 2.35728 6.44607 2.61922 7.00839C2.76555 7.37584 2.81434 7.76559 2.96701 8.15486C3.3148 9.10645 3.64162 10.1666 4.09868 11.0537C4.34257 11.508 4.59866 11.9845 4.90352 12.3951C5.07766 12.6375 5.38253 12.7412 5.4474 13.1305C5.14253 13.5634 5.12156 14.2115 4.94742 14.753C4.16355 17.1971 4.46842 20.225 5.57813 22.0244C5.9269 22.5649 6.74882 23.755 7.8639 23.3003C8.84337 22.911 8.62485 21.6783 8.90776 20.5968C8.97361 20.3374 8.92971 20.1644 9.05995 19.9908V20.0393L9.9526 21.8344C10.6272 22.8941 11.8028 23.9974 12.7818 24.7332C13.3037 25.1225 13.7173 25.7934 14.37 26.031V25.9655H14.3271C14.1963 25.7716 14.0002 25.6844 13.8261 25.5331C13.4344 25.1438 12.9993 24.6678 12.6944 24.2354C11.7808 23.0245 10.976 21.6831 10.2575 20.2991C9.9087 19.6287 9.60383 18.8933 9.32189 18.2229C9.19019 17.9631 9.19019 17.5733 8.97313 17.4444C8.64631 17.9194 8.16828 18.3315 7.9278 18.9151C7.51415 19.8449 7.47123 20.9914 7.31904 22.181C7.23124 22.2028 7.27026 22.181 7.23124 22.2295C6.53566 22.0569 6.29567 21.3423 6.0347 20.7374C5.38204 19.2016 5.27277 16.7361 5.83861 14.9624C5.9908 14.5082 6.64443 13.0805 6.38347 12.6481C6.25176 12.237 5.81763 11.9995 5.57764 11.6747C5.29472 11.2636 4.99083 10.7449 4.79474 10.2907C4.27281 9.07881 4.01185 7.73845 3.44553 6.52702C3.18359 5.9647 2.72702 5.38056 2.35679 4.86186C1.94315 4.27772 1.48707 3.86665 1.16025 3.17489C1.05147 2.93251 0.899285 2.54761 1.07342 2.28778C1.11635 2.11472 1.20415 2.04539 1.37732 2.00661C1.66023 1.76423 2.46605 2.07157 2.74897 2.20052C3.55382 2.52531 4.22842 2.8278 4.90303 3.28154C5.2079 3.49774 5.53472 3.90882 5.92641 4.01741H6.38395C7.08051 4.16866 7.86341 4.06589 8.51558 4.25979C9.6692 4.62821 10.7135 5.16823 11.6501 5.75286C14.5007 7.54793 16.8518 10.1002 18.4401 13.1503C18.701 13.6477 18.8098 14.1019 19.0498 14.6211C19.5074 15.6813 20.0732 16.7623 20.5293 17.8011C20.9868 18.8177 21.4219 19.8565 22.0746 20.7C22.4014 21.1542 23.7067 21.3918 24.294 21.6298C24.7296 21.8237 25.4037 21.9982 25.7964 22.2358C26.5359 22.69 27.2758 23.2092 27.9719 23.7065C28.3197 23.9654 29.4084 24.5064 29.4733 24.9378L29.4758 24.9262ZM7.28148 6.13097C6.98079 6.12833 6.68104 6.16467 6.38981 6.23908V6.28755H6.43273C6.60687 6.63367 6.91174 6.87169 7.12929 7.17467L7.63025 8.21303L7.67317 8.16455C7.97804 7.94835 8.13072 7.60223 8.13072 7.08353C7.99999 6.93228 7.97853 6.78055 7.86975 6.62931C7.73902 6.4131 7.45611 6.30452 7.28148 6.13194V6.13097Z" fill="#00678C"/>
</g>
<defs>
<clipPath id="clip0_1181_22803">
<rect width="32" height="32" fill="white"/>
</clipPath>
</defs>
</svg>
