<svg width="32" height="32" viewBox="0 0 32 32" fill="none" xmlns="http://www.w3.org/2000/svg">
<g clip-path="url(#clip0_1181_22824)">
<path d="M23.1754 23.2903C23.3803 21.5964 23.3153 21.3465 24.5795 21.6214L24.8993 21.6513C25.9226 21.6959 26.9439 21.5257 27.8974 21.1516C29.5014 20.4071 30.4558 19.1529 28.8968 19.4927C25.2641 20.2322 24.9842 18.988 24.9842 18.988C28.7969 13.3315 30.3959 6.14602 29.0167 4.38712C25.2791 -0.38989 18.7831 1.87869 18.6732 1.93866H18.6382C17.8439 1.77585 17.0355 1.69216 16.2247 1.68881C14.8607 1.61946 13.5144 2.02176 12.4121 2.8281C12.4121 2.8281 0.824348 -1.93392 1.35901 8.84434C1.49893 11.1379 4.64696 26.2085 8.4296 21.6463C9.81873 19.9824 11.1529 18.5733 11.1529 18.5733C11.8271 19.0268 12.6374 19.2334 13.4465 19.1579L13.5114 19.1029C13.4898 19.3196 13.4982 19.5382 13.5364 19.7525C12.562 20.8418 12.8468 21.0317 10.8981 21.4315C8.94927 21.8312 10.0886 22.5608 10.8431 22.7506C11.7575 22.9805 13.8812 23.3053 15.3403 21.3016L15.2803 21.5264C15.6651 21.8362 15.6401 23.725 15.6951 25.0792C15.6865 26.2121 15.8277 27.3412 16.1148 28.4371C16.3896 29.1816 16.7144 31.0954 19.2778 30.5608C21.4165 30.101 23.0505 29.4415 23.2004 23.3003" fill="#101114"/>
<path d="M18.4034 31.9799C16.7045 31.9799 15.5252 31.0105 14.9056 29.0867C14.8806 29.0118 14.8606 28.9418 14.8356 28.8819C14.4877 27.6567 14.3194 26.3876 14.3359 25.1142C14.3359 24.8694 14.3359 24.6145 14.311 24.3397C14.311 24.1848 14.311 23.9999 14.311 23.81C13.114 24.3051 11.7856 24.3843 10.5383 24.0349C9.90497 23.8962 9.32941 23.5666 8.88934 23.0905C8.531 23.4239 8.08969 23.655 7.61152 23.7596C7.13335 23.8642 6.63587 23.8385 6.17104 23.6851C2.05861 22.3459 0.0748487 9.96368 -0.000104517 8.90934C-0.150011 5.49647 0.769415 3.08797 2.74818 1.68885C5.83625 -0.499784 10.4933 0.754433 12.2323 1.34406C13.4463 0.646747 14.8304 0.300735 16.2298 0.344689C16.9969 0.351139 17.7622 0.419653 18.5183 0.549561C20.4171 -0.075049 26.3934 -1.12939 30.0711 3.57267C31.9949 6.02614 30.0461 13.1367 26.963 18.3734C27.5094 18.3501 28.0527 18.2799 28.587 18.1636C30.3409 17.7988 30.8256 18.8331 30.9356 19.1629C31.4802 20.8069 29.1667 22.0261 28.4371 22.3609C27.2959 22.8223 26.0694 23.0353 24.8394 22.9855H24.5645C24.5645 23.0405 24.5645 23.0955 24.5645 23.1504V23.3653C24.4046 29.6664 22.6907 31.2204 19.5677 31.89C19.1836 31.9592 18.7935 31.9893 18.4034 31.9799ZM16.6845 21.3616C16.9171 22.3178 17.0196 23.3011 16.9893 24.2847C16.9893 24.5396 16.9893 24.7844 16.9893 25.0243C16.9996 26.0206 17.1203 27.0127 17.3491 27.9824C17.379 28.0724 17.414 28.1773 17.454 28.2872C17.7338 29.1467 17.8487 29.5015 18.9531 29.2866C20.5371 28.9468 21.6813 28.702 21.8163 23.2903L23.2704 23.3253L21.8213 23.1504L21.8562 22.8406C21.9762 21.8413 22.0661 21.0517 22.7807 20.5421C23.1866 20.2678 23.6792 20.1522 24.1648 20.2173C23.9168 19.9666 23.7438 19.6516 23.6651 19.3078L23.5452 18.7532L23.865 18.2535C27.6826 12.622 28.717 6.21102 27.9824 5.23663C24.9843 1.42401 19.8125 2.99803 19.2279 3.16792L19.1279 3.22289L18.6283 3.30784L18.3384 3.26287C17.6297 3.11703 16.9083 3.04171 16.1848 3.03801C15.1153 2.97551 14.0568 3.28247 13.1867 3.90746L12.572 4.37217L11.8625 4.08235C10.4933 3.49772 6.43088 2.36842 4.29221 3.88248C3.11795 4.71696 2.57828 6.38092 2.70321 8.77942C2.85311 11.8075 5.4315 20.8369 7.00052 21.1617C7.15381 21.062 7.289 20.937 7.40027 20.7919C8.7944 19.108 10.1236 17.7088 10.1785 17.6489L10.958 16.8294L11.8975 17.459C12.2083 17.6694 12.5678 17.7967 12.9418 17.8288L15.1354 15.9899L14.8456 19.2429C14.8305 19.3422 14.8305 19.4433 14.8456 19.5427V19.6276L18.3434 14.7657L16.6845 21.3616Z" fill="#101114"/>
<path d="M28.8618 19.4878C25.249 20.2323 24.9892 18.9881 24.9892 18.9881C28.8018 13.3316 30.3958 6.14613 29.0217 4.39223C25.269 -0.374792 18.7731 1.89379 18.6632 1.95375H18.6282C17.8352 1.79351 17.0287 1.70984 16.2197 1.70391C14.8539 1.63891 13.5069 2.04265 12.4021 2.84819C12.4021 2.84819 0.814312 -1.92382 1.35397 8.85444C1.4689 11.148 4.63692 26.2186 8.42456 21.6564C9.81868 19.9825 11.1529 18.5734 11.1529 18.5734C11.8271 19.0269 12.6373 19.2335 13.4464 19.158L13.5114 19.103C13.4897 19.3197 13.4982 19.5383 13.5364 19.7526C12.562 20.8419 12.8468 21.0318 10.898 21.4316C8.94923 21.8313 10.0885 22.5609 10.843 22.7508C11.7575 22.9806 13.8811 23.3054 15.3402 21.3017L15.2803 21.5265C15.665 21.8363 15.9299 23.5253 15.8849 25.0243C15.8399 26.5234 15.8099 27.5977 16.1098 28.4172C16.4096 29.2367 16.7094 31.0805 19.2728 30.5409C21.4114 30.0812 22.5207 28.8919 22.6756 26.9132C22.7856 25.504 23.0354 25.7089 23.0504 24.4497L23.2503 23.8551C23.4801 21.9413 23.2903 21.3266 24.6044 21.6115L24.9292 21.6414C25.9526 21.6871 26.9741 21.5168 27.9274 21.1418C29.5314 20.3972 30.4858 19.143 28.9018 19.4778L28.8618 19.4878Z" fill="#336791"/>
<path d="M18.5483 31.1454C16.3946 31.1454 15.7051 29.4415 15.4252 28.7469C15.0155 27.7476 14.9255 23.91 15.0205 20.5721C15.0282 20.4532 15.0812 20.3418 15.1686 20.2609C15.256 20.1801 15.3711 20.1358 15.4902 20.1373C15.549 20.1386 15.607 20.1516 15.6608 20.1754C15.7146 20.1993 15.7631 20.2336 15.8036 20.2764C15.844 20.3191 15.8756 20.3695 15.8964 20.4245C15.9172 20.4796 15.9269 20.5382 15.9249 20.597C15.82 24.3097 15.9649 27.6726 16.2647 28.4122C16.5645 29.1517 17.1641 30.6308 19.4127 30.1511C21.3215 29.7463 22.0011 29.0568 22.3209 27.2079L23.1004 20.9868C23.115 20.8695 23.1756 20.7628 23.2688 20.6902C23.3621 20.6176 23.4803 20.585 23.5976 20.5995C23.7149 20.6141 23.8216 20.6747 23.8942 20.7679C23.9668 20.8612 23.9995 20.9794 23.9849 21.0967L23.1954 27.3378C22.8156 29.5514 21.8412 30.5458 19.5876 31.0255C19.2467 31.1037 18.8981 31.1439 18.5483 31.1454ZM6.96551 22.9006C6.77535 22.9008 6.58639 22.8704 6.40586 22.8107C5.01173 22.3459 3.68257 20.0774 2.45833 16.0699C1.71642 13.7059 1.19288 11.279 0.894308 8.8194C0.739405 5.75132 1.52891 3.57768 3.24784 2.36344C6.63572 -0.035064 12.3272 2.24851 12.567 2.36344C12.6263 2.38219 12.6811 2.41303 12.7278 2.45401C12.7746 2.49499 12.8123 2.54523 12.8387 2.60154C12.8651 2.65786 12.8795 2.71903 12.881 2.78119C12.8825 2.84335 12.8711 2.90516 12.8476 2.9627C12.824 3.02024 12.7888 3.07227 12.7441 3.11549C12.6994 3.15872 12.6462 3.19221 12.5879 3.21385C12.5296 3.23548 12.4674 3.24479 12.4054 3.24119C12.3433 3.23759 12.2826 3.22115 12.2272 3.19292C12.1723 3.19292 6.73066 0.99929 3.76252 3.11297C2.31342 4.14233 1.64884 6.05113 1.76376 8.79442C2.07171 11.1746 2.59179 13.5225 3.31779 15.81C4.40212 19.3678 5.63135 21.6064 6.69069 21.9612C6.85059 22.0162 7.34528 22.1811 8.06483 21.3166C9.43897 19.6576 10.7032 18.3185 10.7182 18.3185C10.7595 18.2771 10.8085 18.2442 10.8626 18.2218C10.9166 18.1994 10.9745 18.1879 11.033 18.1879C11.0915 18.1879 11.1494 18.1994 11.2034 18.2218C11.2574 18.2442 11.3065 18.2771 11.3478 18.3185C11.4317 18.4027 11.4788 18.5168 11.4788 18.6358C11.4788 18.7547 11.4317 18.8688 11.3478 18.9531C11.3478 18.9531 10.0936 20.2623 8.73941 21.8962C8.53845 22.1864 8.27455 22.4275 7.96738 22.6014C7.66022 22.7753 7.31774 22.8776 6.96551 22.9006ZM24.9543 19.4028C24.8646 19.4032 24.7772 19.3752 24.7044 19.3228C24.6557 19.2902 24.6139 19.2482 24.5815 19.1993C24.5491 19.1504 24.5267 19.0956 24.5155 19.038C24.5044 18.9804 24.5047 18.9212 24.5166 18.8637C24.5284 18.8063 24.5515 18.7517 24.5845 18.7032C28.4521 12.9918 29.8062 6.11609 28.652 4.64201C25.2141 0.244761 19.3878 2.1086 18.8631 2.29348H18.7931C18.6879 2.32763 18.5739 2.32268 18.472 2.27954C18.3701 2.2364 18.2872 2.15797 18.2385 2.05863C18.1948 1.96 18.1884 1.84886 18.2206 1.7459C18.2528 1.64294 18.3213 1.55519 18.4134 1.49898H18.5283C18.548 1.49448 18.5685 1.49448 18.5883 1.49898C19.6976 1.1392 25.7388 -0.499773 29.3615 4.13233C31.0055 6.23602 28.9768 13.8712 25.364 19.2579C25.3181 19.3126 25.2595 19.3553 25.1933 19.3823C25.1271 19.4093 25.0554 19.4198 24.9843 19.4128L24.9543 19.4028Z" fill="white"/>
<path d="M25.1842 22.0561C24.6272 22.0881 24.071 21.9816 23.5652 21.7463C23.436 21.6795 23.3262 21.5804 23.2466 21.4587C23.1669 21.337 23.12 21.1968 23.1105 21.0517C23.0105 19.3328 23.9299 18.993 24.4396 18.8481C24.3747 18.7531 24.2897 18.6482 24.1998 18.5383C23.7889 18.0635 23.452 17.5295 23.2004 16.9543C23.1554 16.8443 23.0105 16.5795 22.8406 16.2697C21.9212 14.6007 19.9874 11.1229 21.2366 9.33403C21.8113 8.50954 22.9456 8.17975 24.6145 8.33465C24.0848 6.80061 21.6963 2.1785 16.2098 2.09355C15.4588 2.05108 14.7073 2.16605 14.0034 2.43109C13.2995 2.69613 12.6588 3.10538 12.1223 3.63259C9.81376 5.96113 9.88872 10.1985 9.88872 10.2385C9.88051 10.3495 9.83138 10.4536 9.75085 10.5305C9.67031 10.6074 9.5641 10.6517 9.45278 10.6549C9.34145 10.658 9.23294 10.6197 9.14823 10.5473C9.06353 10.475 9.00867 10.3739 8.99428 10.2634C8.99428 10.0736 8.90433 5.61135 11.4927 3.00298C12.1123 2.39073 12.8526 1.91416 13.6664 1.6036C14.4802 1.29304 15.3498 1.15529 16.2198 1.19911C23.0955 1.30404 25.5439 7.83996 25.6239 8.69443C25.6523 8.82292 25.6289 8.95744 25.5587 9.06877C25.4886 9.1801 25.3773 9.25926 25.2491 9.28905H25.0892C23.9849 9.13415 22.4858 9.07919 21.9862 9.8487C21.0567 11.1779 22.8756 14.4408 23.6551 15.845C23.8049 16.0977 23.9416 16.3578 24.0649 16.6245C24.2735 17.1182 24.5547 17.578 24.8993 17.9886C25.1391 18.2398 25.3185 18.5423 25.424 18.8731C25.5389 19.013 26.1635 19.5476 28.7569 19.013C29.4965 18.8581 29.9362 19.013 30.0761 19.4077C30.3409 20.2122 28.8769 21.1367 28.0773 21.5164C27.1575 21.8837 26.1746 22.0671 25.1842 22.0561ZM23.9849 20.9867C24.3247 21.2966 26.4833 21.2666 27.6726 20.7169C28.1509 20.5064 28.5928 20.2214 28.9818 19.8724C27.1379 20.2522 25.8338 20.2022 25.0992 19.7175L24.9743 19.6276L24.7994 19.6826C24.3397 19.8025 23.9499 19.9124 23.9849 20.9867Z" fill="white"/>
<path d="M12.1374 23.3304C11.6554 23.3254 11.1756 23.2634 10.7082 23.1455C10.5683 23.1055 9.31912 22.7707 9.3391 21.9762C9.35909 21.1817 10.3934 21.0318 10.7832 20.9768C12.1623 20.692 12.2473 20.5821 12.677 20.0374C12.8069 19.8725 12.9618 19.6726 13.1767 19.4378L13.2167 19.3978C13.399 19.1474 13.6636 18.9691 13.9642 18.8941C14.2648 18.8192 14.5821 18.8525 14.8607 18.9881C15.1034 19.0995 15.3188 19.2628 15.4915 19.4666C15.6641 19.6704 15.79 19.9096 15.86 20.1673C15.9346 20.388 15.9567 20.623 15.9246 20.8538C15.8925 21.0845 15.8071 21.3045 15.6751 21.4965C15.2852 22.073 14.7572 22.5428 14.1393 22.8631C13.5214 23.1834 12.8332 23.344 12.1374 23.3304ZM10.3285 22.0162C10.5117 22.1371 10.7146 22.225 10.9281 22.276C12.1224 22.5758 13.7813 22.5958 14.9256 20.9968C14.9774 20.9143 15.0101 20.8212 15.0214 20.7243C15.0326 20.6275 15.0221 20.5294 14.9906 20.4372C14.9596 20.3102 14.9023 20.1911 14.8222 20.0878C14.7421 19.9845 14.6411 19.8992 14.5259 19.8375C14.281 19.7376 14.1511 19.6826 13.8563 20.0074L13.8213 20.0424C13.6414 20.2473 13.5065 20.4222 13.3916 20.5421C12.8419 21.2367 12.5921 21.4715 10.9731 21.8013C10.7508 21.8486 10.5346 21.9206 10.3285 22.0162Z" fill="white"/>
<path d="M13.4466 20.1372C13.3397 20.1382 13.236 20.1002 13.1551 20.0303C13.0742 19.9604 13.0215 19.8634 13.0069 19.7575C13.002 19.6976 13.002 19.6375 13.0069 19.5776C11.9292 19.5394 10.9104 19.0759 10.1737 18.2884C9.68496 17.7756 9.32011 17.1577 9.10705 16.4822C8.89398 15.8066 8.83836 15.0912 8.94442 14.3908C9.08686 13.1615 9.10361 11.9209 8.99439 10.6881C8.99439 10.4933 8.99439 10.3434 8.99439 10.2484C8.99439 9.51888 11.0681 8.61444 12.3173 8.47952C13.8414 8.31962 14.8507 8.97921 15.1505 10.3833C15.95 14.086 15.2155 15.725 14.6758 16.9193C14.5759 17.1391 14.486 17.344 14.406 17.5539L14.3361 17.7387C14.0486 18.3257 13.895 18.9691 13.8863 19.6226C13.9022 19.7376 13.8724 19.8544 13.8033 19.9477C13.7342 20.0411 13.6313 20.1038 13.5166 20.1222L13.4466 20.1372ZM9.89383 10.3783C9.89383 10.4483 9.89383 10.5332 9.89383 10.6332C9.99272 11.9274 9.95923 13.2283 9.79389 14.5158C9.70887 15.0835 9.75471 15.6632 9.92792 16.2105C10.1011 16.7578 10.3971 17.2583 10.7933 17.6738C11.0865 17.9861 11.4401 18.2357 11.8326 18.4075C12.2251 18.5793 12.6484 18.6696 13.0768 18.6732C13.1912 18.2508 13.3297 17.8354 13.4916 17.4289L13.5615 17.2391C13.6465 17.0142 13.7464 16.7893 13.8564 16.5545C14.356 15.4102 15.0106 13.9861 14.2711 10.5582C14.2402 10.2782 14.1224 10.0148 13.9342 9.80509C13.746 9.59539 13.4969 9.44987 13.2218 9.38896C11.9925 9.11913 10.2686 10.0435 9.89383 10.3783Z" fill="white"/>
<path d="M12.3572 10.1834C12.3322 10.3333 12.622 10.7231 13.0018 10.7731C13.1482 10.7932 13.2971 10.765 13.426 10.6929C13.555 10.6207 13.6569 10.5086 13.7164 10.3733C13.7414 10.2284 13.4515 10.0685 13.0718 10.0135C12.692 9.95857 12.3722 10.0385 12.3572 10.1834Z" fill="white"/>
<path d="M13.0867 10.9331H12.9768C12.7209 10.8851 12.4925 10.7424 12.3372 10.5334C12.2522 10.4329 12.2061 10.3052 12.2073 10.1736C12.2123 10.1364 12.2251 10.1007 12.2449 10.0688C12.2647 10.0369 12.2911 10.0096 12.3222 9.98872C12.5572 9.86089 12.8304 9.82187 13.0917 9.87878C13.3599 9.89498 13.6134 10.0067 13.8063 10.1936C13.8518 10.2555 13.8732 10.3319 13.8663 10.4085C13.8058 10.5653 13.6986 10.6998 13.5592 10.7936C13.4197 10.8875 13.2548 10.9362 13.0867 10.9331ZM12.4921 10.2136C12.5367 10.3173 12.6053 10.4089 12.6921 10.481C12.779 10.5531 12.8817 10.6036 12.9918 10.6283C13.1 10.6392 13.2092 10.6192 13.3065 10.5705C13.4038 10.5219 13.4853 10.4466 13.5415 10.3535C13.3952 10.246 13.2225 10.1804 13.0418 10.1636C12.858 10.1205 12.6651 10.138 12.4921 10.2136Z" fill="white"/>
<path d="M23.8051 9.88873C23.8051 10.0336 23.5352 10.4234 23.1605 10.4784C23.0137 10.4963 22.865 10.4673 22.7357 10.3955C22.6064 10.3237 22.5032 10.2127 22.4409 10.0786C22.4409 9.9287 22.7107 9.7688 23.0855 9.71883C23.4603 9.66886 23.7851 9.74382 23.8051 9.88873Z" fill="white"/>
<path d="M23.0705 10.5584C22.8891 10.5573 22.7133 10.4958 22.5708 10.3835C22.4646 10.3158 22.3879 10.2105 22.356 10.0887C22.326 9.8638 22.6908 9.69391 23.0655 9.64394C23.3076 9.59318 23.5597 9.62668 23.7801 9.73888C23.8035 9.75465 23.8233 9.77533 23.838 9.79949C23.8526 9.82365 23.8619 9.85071 23.865 9.8788C23.895 10.0837 23.5552 10.4934 23.1605 10.5484L23.0705 10.5584ZM23.3154 9.77386H23.0955C22.7307 9.82883 22.5059 9.97873 22.5109 10.0537C22.5442 10.1341 22.5996 10.2034 22.6708 10.2536C22.8135 10.3617 22.9927 10.4101 23.1705 10.3885C23.3038 10.3653 23.4284 10.3066 23.5312 10.2187C23.6341 10.1308 23.7114 10.0168 23.7551 9.88879C23.748 9.87351 23.7378 9.85989 23.7251 9.84881C23.5993 9.7828 23.4564 9.75666 23.3154 9.77386Z" fill="white"/>
<path d="M24.3442 18.3236C24.2545 18.324 24.1671 18.296 24.0943 18.2436C23.9986 18.1752 23.9335 18.0721 23.9129 17.9563C23.8924 17.8404 23.918 17.7212 23.9844 17.624C24.8588 16.3198 24.6989 14.9857 24.544 13.6915C24.4576 13.1293 24.4142 12.5613 24.4141 11.9925C24.4336 11.4898 24.487 10.989 24.574 10.4935C24.6752 9.95669 24.7171 9.41042 24.6989 8.86449C24.6949 8.80551 24.7027 8.74633 24.7221 8.69046C24.7414 8.6346 24.7718 8.58321 24.8115 8.53936C24.8511 8.49551 24.8992 8.46011 24.9528 8.43527C25.0065 8.41043 25.0646 8.39666 25.1237 8.39478C25.1821 8.39141 25.2406 8.3996 25.2959 8.41888C25.3511 8.43816 25.402 8.46816 25.4456 8.50716C25.4893 8.54615 25.5248 8.59337 25.5501 8.64612C25.5755 8.69886 25.5902 8.75609 25.5934 8.81452C25.6241 9.43463 25.5872 10.0562 25.4834 10.6684C25.4021 11.1226 25.3504 11.5816 25.3285 12.0425C25.3292 12.5593 25.3676 13.0753 25.4435 13.5865C25.6084 14.9707 25.7982 16.5397 24.7389 18.1237C24.6966 18.1889 24.6378 18.2418 24.5685 18.2769C24.4992 18.312 24.4218 18.3281 24.3442 18.3236Z" fill="white"/>
</g>
<defs>
<clipPath id="clip0_1181_22824">
<rect width="31.0306" height="32" fill="white"/>
</clipPath>
</defs>
</svg>
