<svg width="40" height="32" viewBox="0 0 40 32" fill="none" xmlns="http://www.w3.org/2000/svg">
<g clip-path="url(#clip0_1181_23219)">
<path fill-rule="evenodd" clip-rule="evenodd" d="M32.7794 2.2672L33.6054 3.35484C33.8222 3.64189 33.768 4.05334 33.4809 4.27024L32.6039 4.93685C32.7634 5.36104 32.8654 5.81396 32.9069 6.27644L33.9051 6.4136C34.2622 6.46144 34.511 6.79314 34.4632 7.15037L34.2782 8.50593C34.2303 8.86315 33.8987 9.11512 33.5415 9.0641L32.4509 8.91419C32.2563 9.3384 32.0076 9.72751 31.7143 10.0752L32.3265 10.8789C32.5433 11.166 32.486 11.5774 32.199 11.7943L31.1115 12.6204C30.8245 12.8373 30.4132 12.7799 30.1964 12.496L29.5298 11.6189C29.1025 11.7784 28.6529 11.8804 28.1872 11.9219L28.0501 12.9202C28.0023 13.2775 27.6707 13.5262 27.3134 13.4784L25.9582 13.2934C25.6009 13.2456 25.3523 12.9139 25.4001 12.5566L25.55 11.4658C25.1291 11.2712 24.7368 11.0225 24.3892 10.7322L23.5856 11.3414C23.2986 11.5583 22.8872 11.5041 22.6703 11.217L21.8444 10.1294C21.6276 9.84233 21.6818 9.43089 21.9688 9.21399L22.8457 8.5474C22.6863 8.11998 22.5843 7.67027 22.5428 7.20779L21.5446 7.07063C21.1876 7.02279 20.9355 6.69109 20.9866 6.33386L21.1716 4.9783C21.2225 4.62108 21.551 4.37229 21.9082 4.42013L22.9988 4.57004C23.1933 4.14903 23.4421 3.75672 23.7322 3.40906L23.1232 2.60529C22.9063 2.32142 22.9606 1.90998 23.2475 1.69309L24.335 0.867002C24.622 0.650114 25.0334 0.704336 25.2503 0.991393L25.9167 1.86851C26.3409 1.70904 26.7936 1.60697 27.2561 1.56551L27.3933 0.567185C27.4411 0.209959 27.7727 -0.0420142 28.1299 0.00582875L29.4852 0.190821C29.8423 0.238664 30.0942 0.570376 30.0432 0.927603L29.8934 2.01842C30.3175 2.21298 30.7066 2.46176 31.0573 2.7552L31.8609 2.14601C32.1479 1.92593 32.5593 1.98015 32.7794 2.2672ZM9.46168 21.4075V16.1448H12.1722C12.6762 16.1448 13.0587 16.1863 13.3236 16.2756C13.5882 16.3618 13.805 16.5211 13.9645 16.7541C14.1272 16.99 14.2101 17.274 14.2101 17.6088C14.2101 17.8991 14.1463 18.1543 14.0218 18.3647C13.8974 18.5784 13.7254 18.7507 13.5085 18.8815C13.3714 18.9644 13.18 19.0346 12.9376 19.0888C13.1322 19.1558 13.2725 19.2163 13.3585 19.2833C13.4192 19.328 13.5053 19.4206 13.6169 19.5608C13.7285 19.7012 13.805 19.8127 13.8432 19.8893L14.6341 21.4108H12.7974L11.9299 19.8064C11.8183 19.5992 11.7226 19.462 11.6365 19.4013C11.5185 19.3216 11.3846 19.2802 11.2378 19.2802H11.0943V21.4108H9.46168V21.4075ZM15.1954 30.5711H12.1595L11.7226 32H8.98658L12.2488 23.3277H15.1827L18.4323 32H15.6259L15.1954 30.5711ZM14.6277 28.6924L13.6806 25.5731L12.7304 28.6924H14.6277ZM19.0636 23.3277H23.5218C24.4945 23.3277 25.2215 23.5574 25.703 24.0198C26.1846 24.4823 26.4269 25.1425 26.4269 25.9941C26.4269 26.8712 26.1623 27.5571 25.6361 28.0514C25.1098 28.5458 24.3032 28.7913 23.222 28.7913H21.752V32H19.0636V23.3277ZM21.752 27.034H22.412C22.9319 27.034 23.2986 26.9447 23.509 26.7628C23.7195 26.5842 23.8248 26.3513 23.8248 26.0738C23.8248 25.8028 23.7322 25.57 23.5505 25.3817C23.3688 25.1935 23.0243 25.0978 22.5205 25.0978H21.752V27.034ZM27.5112 23.3277H30.1995V32H27.5112V23.3277ZM11.0943 18.2818H11.7801C11.8534 18.2818 11.9969 18.2563 12.2106 18.2085C12.319 18.1861 12.4083 18.1319 12.4752 18.0426C12.5454 17.9533 12.5773 17.8513 12.5773 17.7365C12.5773 17.5673 12.5231 17.4335 12.4147 17.3442C12.3063 17.2516 12.1053 17.207 11.8088 17.207H11.0943V18.2818ZM14.9467 16.1448H19.2996V17.2676H16.5794V18.1064H19.1018V19.1781H16.5794V20.2147H19.3794V21.4044H14.9467V16.1448ZM19.7652 19.6661L21.3087 19.5704C21.3405 19.8224 21.4107 20.0106 21.5128 20.1414C21.6818 20.3518 21.9209 20.4602 22.2303 20.4602C22.4599 20.4602 22.6416 20.406 22.766 20.2976C22.8904 20.1892 22.9541 20.0616 22.9541 19.918C22.9541 19.7809 22.8935 19.6598 22.7756 19.5513C22.6576 19.4428 22.3802 19.344 21.9433 19.2451C21.2321 19.0856 20.725 18.8718 20.4189 18.6072C20.1128 18.3424 19.9598 18.0044 19.9598 17.5928C19.9598 17.3218 20.0395 17.0666 20.1957 16.8274C20.352 16.5882 20.5879 16.3969 20.9036 16.2597C21.2194 16.1225 21.6499 16.0555 22.1983 16.0555C22.8713 16.0555 23.3815 16.1799 23.7355 16.4318C24.0862 16.6839 24.2968 17.0793 24.3637 17.6279L22.8362 17.7205C22.7947 17.4813 22.7085 17.3058 22.581 17.2007C22.4503 17.0921 22.2685 17.0379 22.0421 17.0379C21.854 17.0379 21.7105 17.0793 21.6148 17.1592C21.5192 17.2389 21.4713 17.3378 21.4713 17.4526C21.4713 17.5355 21.5128 17.6088 21.5894 17.679C21.6658 17.746 21.8444 17.8129 22.1314 17.8736C22.8426 18.0266 23.3528 18.183 23.6589 18.3393C23.965 18.4955 24.1915 18.6901 24.3286 18.9229C24.4689 19.1527 24.5391 19.414 24.5391 19.7012C24.5391 20.0392 24.4467 20.3486 24.2584 20.6325C24.0734 20.9164 23.8121 21.1332 23.4772 21.28C23.1423 21.4268 22.7214 21.5001 22.2111 21.5001C21.3182 21.5001 20.6965 21.3278 20.352 20.9833C20.0076 20.6325 19.813 20.1956 19.7652 19.6661ZM24.775 16.1448H29.7211V17.4462H28.0628V21.4075H26.4365V17.4462H24.775V16.1448ZM19.3028 3.65464C18.7191 3.60999 18.1293 3.61638 17.5458 3.6738C15.7503 3.84602 14.006 4.49987 12.5645 5.6194C10.8966 6.91117 9.63066 8.84402 9.14283 11.4052L8.98968 12.2058L8.19246 12.3461C7.41123 12.4833 6.71278 12.6714 6.10054 12.9107C5.5074 13.1403 4.97793 13.4242 4.51556 13.7591C4.1456 14.027 3.82674 14.3268 3.55572 14.6521C2.71703 15.6568 2.32797 16.9167 2.3376 18.1925C2.34707 19.4875 2.76797 20.7951 3.54609 21.87C3.83637 22.2687 4.17123 22.6356 4.55393 22.9544C4.94299 23.2766 5.37972 23.5445 5.87083 23.7455C6.14838 23.8602 6.44487 23.9561 6.75425 24.0325V26.4216C6.11638 26.3066 5.5296 26.1345 4.98119 25.9079C4.25727 25.6082 3.61629 25.2222 3.05189 24.7502C2.51605 24.3037 2.04731 23.7966 1.64878 23.2447C0.586743 21.7776 0.0127023 19.985 -3.23619e-05 18.1989C-0.0127671 16.3936 0.548539 14.5979 1.76029 13.1435C2.15262 12.6714 2.61499 12.2377 3.14429 11.8549C3.7598 11.4084 4.46462 11.032 5.26184 10.7226C5.81025 10.5089 6.39703 10.3303 7.0158 10.1868C7.71736 7.39915 9.21286 5.2526 11.1358 3.7631C12.9345 2.36927 15.0997 1.55594 17.3288 1.34224C18.4992 1.23061 19.6855 1.28164 20.8463 1.49853C20.8207 1.60378 20.7985 1.70904 20.7856 1.81749L20.7825 1.83662C20.7601 2.01842 20.7507 2.20023 20.7601 2.38522C20.5146 2.4809 20.285 2.61167 20.0777 2.77115L20.0682 2.77753C19.7588 3.01037 19.4973 3.31019 19.3028 3.65464ZM36.1756 9.77855C36.3543 9.94121 36.5263 10.1103 36.6955 10.2921C37.0365 10.6589 37.3587 11.0735 37.6617 11.536C38.6821 13.1052 39.2052 15.2008 39.1828 17.2516C39.1605 19.2642 38.6184 21.2673 37.5085 22.7407C36.7846 23.7009 35.8568 24.4854 34.7438 25.1074C33.9815 25.5349 33.1237 25.8888 32.1894 26.176V23.704C32.6932 23.5159 33.1621 23.3053 33.5926 23.0661C34.4313 22.5972 35.1169 22.0263 35.6303 21.3406C36.4276 20.2785 36.8197 18.7762 36.8357 17.2356C36.8548 15.6186 36.4594 13.9951 35.6909 12.815C35.4708 12.4737 35.2285 12.1675 34.9734 11.8932C34.8746 11.788 34.7756 11.6891 34.6736 11.5934C34.6896 11.4339 34.696 11.2712 34.6863 11.1086C34.9319 11.0129 35.1614 10.8821 35.3688 10.7226L35.3784 10.7163C35.7067 10.4643 35.981 10.1453 36.1756 9.77855ZM28.0885 4.08204C29.5585 4.28299 30.5853 5.63853 30.3845 7.10891C30.1835 8.57928 28.8282 9.6095 27.3582 9.40856C25.888 9.20762 24.8579 7.85206 25.062 6.3817C25.2661 4.91133 26.6183 3.88111 28.0885 4.08204Z" fill="#01B5E6"/>
</g>
<defs>
<clipPath id="clip0_1181_23219">
<rect width="39.1837" height="32" fill="white"/>
</clipPath>
</defs>
</svg>
