<svg width="32" height="32" viewBox="0 0 32 32" fill="none" xmlns="http://www.w3.org/2000/svg">
<g clip-path="url(#clip0_1181_22950)">
<path d="M6.85338 20.1575C6.85338 21.9969 5.36677 23.4835 3.5274 23.4835C1.68803 23.4835 0.201416 21.9969 0.201416 20.1575C0.201416 18.3182 1.68803 16.8315 3.5274 16.8315H6.85338V20.1575ZM8.51638 20.1575C8.51638 18.3182 10.003 16.8315 11.8424 16.8315C13.6817 16.8315 15.1683 18.3182 15.1683 20.1575V28.4725C15.1683 30.3119 13.6817 31.7985 11.8424 31.7985C10.003 31.7985 8.51638 30.3119 8.51638 28.4725V20.1575Z" fill="#E01E5A"/>
<path d="M11.8424 6.80309C10.003 6.80309 8.51643 5.31648 8.51643 3.47711C8.51643 1.63774 10.003 0.151123 11.8424 0.151123C13.6818 0.151123 15.1684 1.63774 15.1684 3.47711V6.80309H11.8424ZM11.8424 8.49128C13.6818 8.49128 15.1684 9.9779 15.1684 11.8173C15.1684 13.6566 13.6818 15.1432 11.8424 15.1432H3.50225C1.66288 15.1432 0.17627 13.6566 0.17627 11.8173C0.17627 9.9779 1.66288 8.49128 3.50225 8.49128H11.8424Z" fill="#36C5F0"/>
<path d="M25.1716 11.8173C25.1716 9.9779 26.6583 8.49128 28.4976 8.49128C30.337 8.49128 31.8236 9.9779 31.8236 11.8173C31.8236 13.6566 30.337 15.1432 28.4976 15.1432H25.1716V11.8173ZM23.5087 11.8173C23.5087 13.6566 22.022 15.1432 20.1827 15.1432C18.3433 15.1432 16.8567 13.6566 16.8567 11.8173V3.47711C16.8567 1.63774 18.3433 0.151123 20.1827 0.151123C22.022 0.151123 23.5087 1.63774 23.5087 3.47711V11.8173Z" fill="#2EB67D"/>
<path d="M20.1827 25.1465C22.022 25.1465 23.5087 26.6331 23.5087 28.4725C23.5087 30.3119 22.022 31.7985 20.1827 31.7985C18.3433 31.7985 16.8567 30.3119 16.8567 28.4725V25.1465H20.1827ZM20.1827 23.4835C18.3433 23.4835 16.8567 21.9969 16.8567 20.1575C16.8567 18.3182 18.3433 16.8315 20.1827 16.8315H28.5228C30.3622 16.8315 31.8488 18.3182 31.8488 20.1575C31.8488 21.9969 30.3622 23.4835 28.5228 23.4835H20.1827Z" fill="#ECB22E"/>
</g>
<defs>
<clipPath id="clip0_1181_22950">
<rect width="31.748" height="32" fill="white"/>
</clipPath>
</defs>
</svg>
