<svg width="25" height="32" viewBox="0 0 25 32" fill="none" xmlns="http://www.w3.org/2000/svg">
<mask id="mask0_1181_22883" style="mask-type:luminance" maskUnits="userSpaceOnUse" x="1" y="0" width="23" height="32">
<path d="M15.4111 0.457764H3.40114C2.23547 0.457764 1.28174 1.4115 1.28174 2.57717V29.4229C1.28174 30.5886 2.23547 31.5423 3.40114 31.5423H21.7693C22.935 31.5423 23.8887 30.5886 23.8887 29.4229V8.93538L15.4111 0.457764Z" fill="white"/>
</mask>
<g mask="url(#mask0_1181_22883)">
<path d="M15.4111 0.457764H3.40114C2.23547 0.457764 1.28174 1.4115 1.28174 2.57717V29.4229C1.28174 30.5886 2.23547 31.5423 3.40114 31.5423H21.7693C22.935 31.5423 23.8887 30.5886 23.8887 29.4229V8.93538L18.9434 5.40304L15.4111 0.457764Z" fill="#0F9D58"/>
</g>
<mask id="mask1_1181_22883" style="mask-type:luminance" maskUnits="userSpaceOnUse" x="1" y="0" width="23" height="32">
<path d="M15.4111 0.457764H3.40114C2.23547 0.457764 1.28174 1.4115 1.28174 2.57717V29.4229C1.28174 30.5886 2.23547 31.5423 3.40114 31.5423H21.7693C22.935 31.5423 23.8887 30.5886 23.8887 29.4229V8.93538L15.4111 0.457764Z" fill="white"/>
</mask>
<g mask="url(#mask1_1181_22883)">
<path d="M6.93359 15.6467V25.8905H18.2371V15.6467H6.93359ZM11.8789 24.4776H8.34653V22.7114H11.8789V24.4776ZM11.8789 21.6517H8.34653V19.8855H11.8789V21.6517ZM11.8789 18.8258H8.34653V17.0597H11.8789V18.8258ZM16.8241 24.4776H13.2918V22.7114H16.8241V24.4776ZM16.8241 21.6517H13.2918V19.8855H16.8241V21.6517ZM16.8241 18.8258H13.2918V17.0597H16.8241V18.8258Z" fill="#F1F1F1"/>
</g>
<mask id="mask2_1181_22883" style="mask-type:luminance" maskUnits="userSpaceOnUse" x="1" y="0" width="23" height="32">
<path d="M15.4111 0.457764H3.40114C2.23547 0.457764 1.28174 1.4115 1.28174 2.57717V29.4229C1.28174 30.5886 2.23547 31.5423 3.40114 31.5423H21.7693C22.935 31.5423 23.8887 30.5886 23.8887 29.4229V8.93538L15.4111 0.457764Z" fill="white"/>
</mask>
<g mask="url(#mask2_1181_22883)">
<path d="M16.031 8.31543L23.8887 16.1713V8.93535L16.031 8.31543Z" fill="url(#paint0_linear_1181_22883)"/>
</g>
<mask id="mask3_1181_22883" style="mask-type:luminance" maskUnits="userSpaceOnUse" x="1" y="0" width="23" height="32">
<path d="M15.4111 0.457764H3.40114C2.23547 0.457764 1.28174 1.4115 1.28174 2.57717V29.4229C1.28174 30.5886 2.23547 31.5423 3.40114 31.5423H21.7693C22.935 31.5423 23.8887 30.5886 23.8887 29.4229V8.93538L15.4111 0.457764Z" fill="white"/>
</mask>
<g mask="url(#mask3_1181_22883)">
<path d="M15.4111 0.457764V6.81597C15.4111 7.98694 16.3596 8.93538 17.5305 8.93538H23.8887L15.4111 0.457764Z" fill="#87CEAC"/>
</g>
<mask id="mask4_1181_22883" style="mask-type:luminance" maskUnits="userSpaceOnUse" x="1" y="0" width="23" height="32">
<path d="M15.4111 0.457764H3.40114C2.23547 0.457764 1.28174 1.4115 1.28174 2.57717V29.4229C1.28174 30.5886 2.23547 31.5423 3.40114 31.5423H21.7693C22.935 31.5423 23.8887 30.5886 23.8887 29.4229V8.93538L15.4111 0.457764Z" fill="white"/>
</mask>
<g mask="url(#mask4_1181_22883)">
<path d="M3.40114 0.457764C2.23547 0.457764 1.28174 1.4115 1.28174 2.57717V2.75378C1.28174 1.58811 2.23547 0.634381 3.40114 0.634381H15.4111V0.457764H3.40114Z" fill="white" fill-opacity="0.2"/>
</g>
<mask id="mask5_1181_22883" style="mask-type:luminance" maskUnits="userSpaceOnUse" x="1" y="0" width="23" height="32">
<path d="M15.4111 0.457764H3.40114C2.23547 0.457764 1.28174 1.4115 1.28174 2.57717V29.4229C1.28174 30.5886 2.23547 31.5423 3.40114 31.5423H21.7693C22.935 31.5423 23.8887 30.5886 23.8887 29.4229V8.93538L15.4111 0.457764Z" fill="white"/>
</mask>
<g mask="url(#mask5_1181_22883)">
<path d="M21.7693 31.3657H3.40114C2.23547 31.3657 1.28174 30.412 1.28174 29.2463V29.423C1.28174 30.5886 2.23547 31.5424 3.40114 31.5424H21.7693C22.935 31.5424 23.8887 30.5886 23.8887 29.423V29.2463C23.8887 30.412 22.935 31.3657 21.7693 31.3657Z" fill="#263238" fill-opacity="0.2"/>
</g>
<mask id="mask6_1181_22883" style="mask-type:luminance" maskUnits="userSpaceOnUse" x="1" y="0" width="23" height="32">
<path d="M15.4111 0.457764H3.40114C2.23547 0.457764 1.28174 1.4115 1.28174 2.57717V29.4229C1.28174 30.5886 2.23547 31.5423 3.40114 31.5423H21.7693C22.935 31.5423 23.8887 30.5886 23.8887 29.4229V8.93538L15.4111 0.457764Z" fill="white"/>
</mask>
<g mask="url(#mask6_1181_22883)">
<path d="M17.5305 8.93532C16.3596 8.93532 15.4111 7.98689 15.4111 6.81592V6.99254C15.4111 8.16351 16.3596 9.11194 17.5305 9.11194H23.8887V8.93532H17.5305Z" fill="#263238" fill-opacity="0.1"/>
</g>
<path d="M15.4111 0.457764H3.40114C2.23547 0.457764 1.28174 1.4115 1.28174 2.57717V29.4229C1.28174 30.5886 2.23547 31.5423 3.40114 31.5423H21.7693C22.935 31.5423 23.8887 30.5886 23.8887 29.4229V8.93538L15.4111 0.457764Z" fill="url(#paint1_radial_1181_22883)"/>
<defs>
<linearGradient id="paint0_linear_1181_22883" x1="408.958" y1="75.7672" x2="408.958" y2="794.017" gradientUnits="userSpaceOnUse">
<stop stop-color="#263238" stop-opacity="0.2"/>
<stop offset="1" stop-color="#263238" stop-opacity="0.02"/>
</linearGradient>
<radialGradient id="paint1_radial_1181_22883" cx="0" cy="0" r="1" gradientUnits="userSpaceOnUse" gradientTransform="translate(72.9017 61.8946) scale(3645.34 3645.34)">
<stop stop-color="white" stop-opacity="0.1"/>
<stop offset="1" stop-color="white" stop-opacity="0"/>
</radialGradient>
</defs>
</svg>
