<svg width="32" height="32" viewBox="0 0 32 32" fill="none" xmlns="http://www.w3.org/2000/svg">
<g clip-path="url(#clip0_1181_22957)">
<path d="M24.8175 0H7.18254C3.21573 0 0 3.21573 0 7.18254V24.8175C0 28.7843 3.21573 32 7.18254 32H24.8175C28.7843 32 32 28.7843 32 24.8175V7.18254C32 3.21573 28.7843 0 24.8175 0Z" fill="#6772E5"/>
<path fill-rule="evenodd" clip-rule="evenodd" d="M14.7422 12.4143C14.7422 11.6495 15.374 11.3058 16.3937 11.3058C18.0835 11.3424 19.7418 11.7712 21.2375 12.5584V8.02493C19.6986 7.42145 18.0577 7.12037 16.4048 7.1382C12.4588 7.1382 9.8208 9.19985 9.8208 12.6803C9.8208 18.0672 17.225 17.1915 17.225 19.5192C17.225 20.417 16.4381 20.7052 15.3629 20.7052C13.4688 20.6008 11.6248 20.0582 9.97598 19.1202V23.7645C11.6561 24.4905 13.4661 24.8676 15.2964 24.8729C19.3421 24.8729 22.1353 22.8777 22.1353 19.3308C22.1686 13.5559 14.7422 14.5978 14.7422 12.4143Z" fill="white"/>
</g>
<defs>
<clipPath id="clip0_1181_22957">
<rect width="32" height="32" fill="white"/>
</clipPath>
</defs>
</svg>
